<svg xmlns="http://www.w3.org/2000/svg" width="663.897" height="172.481"><title>Hadoop logo</title><defs><clipPath id="a"><path d="M91.737 146.325l-9.704-1.577-8.855-3.88-7.52-4.732-7.157-8.733-4.042-4.282-3.91-1.44-1.034 2.527 1.808 2.61.407 3.68 1.21-.05 1.323-1.206-.357 3.75-1.467.984.044 1.428-3.475-1.965-3.147-3.712-.656-3.318 1.345-2.657 1.255-4.513 2.552-1.208 2.684.13 2.546 1.48-1.698-8.613 1.698-9.582-1.87-4.425-6.122-6.596 1.09-3.94 2.9-4.568 5.468-3.85 2.9-.396 3.225-.11-2.01-8.26 7.4-3.032 9.217-1.213 3.154 2.062.244 5.58L84.7 78.52l.244 4.61 8.49-.608 7.885.728-7.885-4.73 1.334-5.702 4.972-7.763 4.852-2.062 3.882 1.577 1.577 3.154 8.127 6.186 1.577-1.334 12.736-.485 2.547 2.063.243 3.64-.85 1.575-.606 9.826-4.245 8.49.728 3.76 2.547-1.333 7.157-6.67 3.517-.243 3.883 1.577 3.88 2.91 1.942 6.308 11.402-.728 6.914 2.67 5.58 5.215 4.004 7.52.97 8.854-.85 10.31-2.182 9.22-2.184 2.91-3.032.97-5.337-5.822-4.853-1.698-4.246 7.035-4.244 3.88-2.305 1.457-9.217 7.64-7.4 4.004-7.4.608-8.61-1.456-7.522-2.79-5.214-4.245-4.125-4.973-4.244-1.213"/></clipPath></defs><path d="M546.042 162.48h37.723l4.672-21.255c10.766 0 21.88.07 32.646.07 5.257 0 9.91-1.633 14.046-4.427 4.99-3.372 8.716-8.54 10.115-14.915 2.367-10.783 4.75-21.565 7.13-32.346 1.357-6.155 3.123-13.105-1.29-18.664-4.06-5.115-9.447-5.513-15.362-5.513-42.59.047-85.183 0-127.774 0-4.3 0-7.902 1.39-11.66 3.327-3.525-2.492-6.706-3.328-11.03-3.328H426.8l4.79-21.55h-37.782l-4.672 21.023H355.91c-4.59 0-9 1.44-12.847 3.913-3.73-2.32-6.608-3.33-11.028-3.33H222.36c1.675-7.278 3.35-14.558 5.023-21.838l-37.723-.06-21.747 97.272 37.686.01 11.336-49.78h12.752c1.518 0 1.22.864.965 2.006-3.574 15.925-7.15 31.85-10.723 47.775h249.85c4.24 0 7.556-.875 11.372-2.82 3.76 2.51 7.084 3.346 11.68 3.306l57.867-.485-4.658 21.61zM382.86 91.16h-11.12c-1.952 0-2.478.888-2.866 2.637l-4.177 18.736c-.397 1.795.512 2.088 2.082 2.088h10.823l5.257-23.46zm63.797.452h11.88c2.285 0 2.16 1.198 1.75 3.05-1.362 6.117-2.723 12.235-4.083 18.353-.474 2.136-1.805 2.1-3.64 2.1h-12.09c-1.775 0-1.79-1.05-1.475-2.486l4.064-18.35c.5-2.266 1.393-2.668 3.593-2.668zm78.198 0h11.88c2.286 0 2.16 1.198 1.75 3.05l-4.082 18.353c-.475 2.136-1.805 2.1-3.64 2.1h-12.09c-1.776 0-1.79-1.05-1.476-2.486 1.356-6.117 2.713-12.234 4.065-18.35.502-2.266 1.394-2.668 3.593-2.668zm69.737 23.68h11.12c1.952 0 2.478-.89 2.866-2.64l4.177-18.736c.396-1.795-.512-2.088-2.082-2.088h-10.825l-5.256 23.463" fill-rule="evenodd"/><path d="M437.96 70.896h47.38c7.395 0 12.104 6.05 10.466 13.443l-8.442 38.106c-1.637 7.394-9.028 13.443-16.42 13.443H423.56c-7.392 0-12.102-6.05-10.464-13.444l8.442-38.107c1.638-7.395 9.027-13.444 16.42-13.444zm8.588 15.3h23.426c3.914 0 6.406 3.2 5.54 7.112l-4.47 20.17c-.865 3.91-4.776 7.113-8.69 7.113H438.93c-3.913 0-6.406-3.2-5.54-7.112l4.47-20.17c.866-3.913 4.775-7.113 8.69-7.113M516.064 70.896h47.383c7.395 0 12.103 6.05 10.465 13.443l-8.44 38.106c-1.64 7.394-9.03 13.443-16.423 13.443h-47.383c-7.394 0-12.104-6.05-10.466-13.444l8.443-38.107c1.638-7.395 9.027-13.444 16.42-13.444zm8.59 15.3h23.427c3.915 0 6.406 3.2 5.54 7.112l-4.47 20.17c-.866 3.91-4.776 7.113-8.69 7.113h-23.427c-3.913 0-6.405-3.2-5.54-7.112l4.47-20.17c.866-3.913 4.776-7.113 8.69-7.113M580.768 70.896h56.868c7.395 0 12.103 6.052 10.466 13.443l-8.442 38.106c-1.637 7.39-9.03 13.447-16.42 13.443l-56.87-.028 14.398-64.966zm14.866 15.3h26.636c3.914 0 6.405 3.2 5.54 7.112l-4.47 20.17c-.866 3.91-4.778 7.113-8.69 7.113h-26.66M406.22 135.378h-56.867c-7.395 0-12.103-6.052-10.466-13.444l8.442-38.106c1.636-7.392 9.03-13.448 16.42-13.443l56.868.026-14.398 64.968zm-14.866-15.3H364.72c-3.915 0-6.406-3.202-5.54-7.112l4.468-20.17c.867-3.91 4.78-7.113 8.69-7.113H399M211.474 70.896h43.466c7.394 0 12.103 6.05 10.466 13.443l-6.172 27.857h-18.306l4.185-18.89c.866-3.912-1.627-7.112-5.54-7.112h-26.93c-3.91 0-.405 3.202-1.27 7.113l-4.13 18.637h-18.306l6.116-27.606c1.638-7.395 9.026-13.444 16.42-13.444" fill="#1f1917" fill-rule="evenodd"/><path d="M183.774 135.378l12.495-56.24h18.255l-12.515 56.24M332.03 135.378H271.25c-7.394 0-12.104-6.05-10.466-13.444l2.45-11.057h.01l.47-2.126c1.638-7.39 9.03-13.446 16.423-13.442l42.53.02.627-2.825c.668-3.685-1.655-6.67-5.308-6.82H268.75l3.39-15.292 61.098.018c7.242.143 11.82 6.134 10.203 13.44l-1.15 5.19h.01l-1.395 6.297h.014l-7.17 32.35h-.014l-1.705 7.693zm-47.246-15.3h32.38l2.106-9.472h-31.827a4.645 4.645 0 0 0-.47-.025c-2.61 0-5.21 2.134-5.786 4.74-.57 2.577 1.048 4.69 3.6 4.74 0 .006 0 .013-.004.02" fill="#1f1917" fill-rule="evenodd"/><path d="M437.96 70.896h47.38c7.395 0 12.104 6.05 10.466 13.443l-8.442 38.106c-1.637 7.394-9.028 13.443-16.42 13.443H423.56c-7.392 0-12.102-6.05-10.464-13.444l8.442-38.107c1.638-7.395 9.027-13.444 16.42-13.444zm8.588 15.3h23.426c3.914 0 6.406 3.2 5.54 7.112l-4.47 20.17c-.865 3.91-4.776 7.113-8.69 7.113H438.93c-3.913 0-6.406-3.2-5.54-7.112l4.47-20.17c.866-3.913 4.775-7.113 8.69-7.113M516.064 70.896h47.383c7.395 0 12.103 6.05 10.465 13.443l-8.44 38.106c-1.64 7.394-9.03 13.443-16.423 13.443h-47.383c-7.394 0-12.104-6.05-10.466-13.444l8.443-38.107c1.638-7.395 9.027-13.444 16.42-13.444zm8.59 15.3h23.427c3.915 0 6.406 3.2 5.54 7.112l-4.47 20.17c-.866 3.91-4.776 7.113-8.69 7.113h-23.427c-3.913 0-6.405-3.2-5.54-7.112l4.47-20.17c.866-3.913 4.776-7.113 8.69-7.113M580.78 70.883l-11.876 53.5-2.53 11.47-4.813 21.78h18.22l4.843-21.78 38.625.03c7.39.004 14.77-6.046 16.406-13.437l8.438-38.094c1.637-7.39-3.074-13.47-10.47-13.47H580.78zm14.843 15.313h26.656c3.913 0 6.397 3.214 5.53 7.125l-4.468 20.157c-.867 3.91-4.776 7.125-8.688 7.125h-26.656l7.625-34.406zM407.217 48.633l-4.844 21.782-38.625-.032c-7.39-.004-14.77 6.046-16.406 13.438l-8.47 38.126c-1.637 7.392 3.075 13.437 10.47 13.437h56.875l14.406-64.968 4.813-21.782h-18.22zm-34.875 37.063h26.656l-7.656 34.375h-26.625c-3.914 0-6.398-3.184-5.53-7.093l4.467-20.187c.867-3.91 4.776-7.094 8.688-7.094zM202.967 48.633l-7.375 33.25h.094l-.313 1.313c-.117.38-.226.768-.312 1.156l-6.124 27.594h.062l-5.22 23.437H202l5.22-23.437h.03l4.125-18.625c.007-.03-.006-.063 0-.093l1.594-7.03h26.593c3.912 0 6.43 3.21 5.563 7.124l-4.188 18.876-5.125 23.187h18.25l5.157-23.187h.03l6.157-27.844c1.638-7.394-3.074-13.47-10.47-13.47H216.28l4.937-22.25h-18.25zM332.03 135.378H271.25c-7.394 0-12.104-6.05-10.466-13.444l2.45-11.057h.01l.47-2.126c1.638-7.39 9.03-13.446 16.423-13.442l42.53.02.627-2.825c.668-3.685-1.655-6.67-5.308-6.82H268.75l3.39-15.292 61.098.018c7.242.143 11.82 6.134 10.203 13.44l-1.15 5.19h.01l-1.395 6.297h.014l-7.17 32.35h-.014l-1.705 7.693zm-47.246-15.3h32.38l2.106-9.472h-31.827a4.645 4.645 0 0 0-.47-.025c-2.61 0-5.21 2.134-5.786 4.74-.57 2.577 1.048 4.69 3.6 4.74 0 .006 0 .013-.004.02" fill="#6cf" fill-rule="evenodd"/><path d="M30.236 95.484c-.748 2.035-1.497 4.07-2.244 6.107l-5.555 5.502c-2.025 2.005-2.46 1.99-1.984 4.828.558 3.333 2.16 6.768 5.11 9.726 3.103 3.11 9.615 7.51 14.302 5.435a32.846 32.846 0 0 1-1.75 4.842c-3.143 6.89 4.516 8.24 9.875 9.69 4.455 1.204 15.386 4.413 16.964-1.44.71-2.635.82-4.05.567-6.566 1.387-3.094 1.83-3.587 2.977-5.29 1.574-2.334 1.46-3.223 1.116-6.12a68.3 68.3 0 0 0-.24-1.808c5.303.798 10.403.788 15.6.143-1.577.92-3.16 1.726-5.247 2.8-4.955 2.546-.286 10.06 1.85 13.35 4.48 6.905 8.5 11.656 16.07 7.56 2.542-1.377 2.738-2.843 4.325-5.213.878-.48 5.396-4.323 8.082-6.493 1.02 1.22 2.968 1.446 5.924 1.66 1.488.108 7.32.07 8.867.08 4.64.03 7.423-.45 7.786-5.507.17-2.397.068-2.907-1.11-5.003-.073-2.644-.143-5.29-.214-7.934-.08-2.978-.65-4.806-1.818-7.59-1.063-2.526-1.658-4.683-2.9-7.134.17-.96.306-1.953.398-2.99l4.73 4.56c3.007 2.896 5.49 5.26 10.075 5.045 4.775-.224 10.24-3.985 11.64-8.586.467-1.535.932-3.07 1.4-4.606 7.198 1.36 15.61 1.05 21.88-2.295 9.22-4.92 13.533-14.812 14.593-25.276.858-8.465-.793-22.7-4.83-30.424-1.186-2.27-6.545-5.145-8.894-2.765-1.77 1.794-2.987 4.527-4.897 6.16-1.48 1.265-3.314 1.89-4.92 2.553-1.244-3.357-3.032-5.967-5.22-8.574-1.74-2.073-3.38-3.106-5.676-4.543-4.535-2.84-8.055-6.426-12.182-9.828-12.488-10.297-23.212-9.98-38.772-3.432-7.423 3.125-11.004 7.365-15.557 13.456-2.75.143-4.64.675-7.55 3.242a100.26 100.26 0 0 0-6.08 5.864c-14.545 2.318-23.578 5.09-33.134 13.56-3.89 3.45-6.716 7.27-8.92 11.564-2.048 2.262-4.083 4.58-6.786 5.622-1.902.73-1.867.73-2.537-1.06 2.26-1.7 2.225-4.9 2.435-7.797 1.427.068 1.962 1.67 2.932 2.894.573-2.563.905-6.54-1.79-7.937.438-1.172.934-2.353 1.388-3.645-3.976.69-17.608 9.88-10.335 16.887.48 1.946.856 3.286 1.488 4.602 1.665 3.46 5.407 4.054 8.668 2.782-.894 4.096-1.075 8.554-.537 14.812.128 1.5.344 3.014.636 4.532" fill-rule="evenodd"/><path d="M31.1 95.8c-.3.82-.602 1.638-.903 2.456l-1.727-.634.902-2.455 1.727.634zm-.903 2.456l-1.342 3.65-1.727-.632 1.342-3.652 1.727.634zm-1.342 3.65l-.216.336-.648-.65.863.315zm-.216.336l-2.944 2.915-1.296-1.303 2.944-2.915 1.295 1.302zm-2.944 2.915l-2.612 2.586-1.295-1.303c.87-.86 1.74-1.724 2.61-2.586l1.296 1.303zm-2.612 2.586c-.397.393-.532.524-.652.64l-1.274-1.333c.265-.255.56-.538.63-.61l1.296 1.303zm-.652.64c-1.18 1.134-1.412 1.36-1.072 3.386l-1.815.3c-.5-2.985-.15-3.322 1.613-5.02l1.274 1.332zm-1.072 3.386a16.406 16.406 0 0 0 1.668 4.917l-1.634.857a18.233 18.233 0 0 1-1.85-5.473l1.816-.3zm1.668 4.917a17.88 17.88 0 0 0 3.187 4.31l-1.303 1.297a19.724 19.724 0 0 1-3.518-4.75l1.634-.857zm3.187 4.31c1.72 1.725 4.526 3.86 7.446 4.97l-.646 1.72c-3.192-1.212-6.24-3.528-8.102-5.393l1.303-1.296zm7.446 4.97c2.033.772 4.104 1.038 5.834.272l.74 1.684c-2.23.988-4.776.693-7.22-.236l.647-1.72zm5.834.272l1.778-.788-.518 1.874-.89-.245-.37-.84zm1.26 1.086c-.23.836-.502 1.693-.813 2.553l-1.733-.628c.294-.816.55-1.626.77-2.415l1.777.49zm-.813 2.553c-.29.8-.617 1.614-.986 2.423l-1.678-.763c.343-.752.653-1.52.93-2.288l1.735.627zm-.986 2.423c-1.557 3.413.074 5.21 2.603 6.364l-.763 1.677c-3.46-1.578-5.683-4.056-3.518-8.804l1.678.763zm2.603 6.364c1.616.736 3.57 1.246 5.388 1.72l-.46 1.777c-1.91-.497-3.964-1.033-5.69-1.82l.762-1.677zm5.388 1.72c.48.123.945.245 1.28.335l-.468 1.778a114.51 114.51 0 0 0-1.273-.336l.46-1.778zm1.28.335c2.19.593 5.98 1.68 9.384 1.895l-.117 1.842c-3.568-.227-7.474-1.348-9.736-1.96l.467-1.778zm9.384 1.895c3.076.195 5.82-.324 6.455-2.68l1.778.468c-.943 3.497-4.455 4.3-8.35 4.054l.116-1.843zm6.455-2.68c.336-1.248.53-2.212.612-3.168l1.842.15c-.09 1.038-.305 2.1-.677 3.485l-1.778-.468zm.612-3.168c.08-.962.048-1.895-.07-3.077l1.828-.173c.133 1.33.172 2.365.084 3.4l-1.843-.15zm-.07-3.077l.07-.46.844.373-.914.087zm.07-.46c1.24-2.768 1.752-3.515 2.654-4.837l1.52 1.037c-.835 1.222-1.307 1.913-2.487 4.547l-1.685-.748zm2.654-4.837c.093-.135.172-.25.404-.594l1.525 1.03c-.06.086-.25.367-.41.6l-1.52-1.036zm.404-.594c.703-1.043 1.027-1.74 1.13-2.46l1.82.25c-.147 1.033-.555 1.948-1.425 3.24l-1.526-1.03zm1.13-2.46c.108-.758 0-1.66-.165-3.042l1.828-.21c.18 1.517.3 2.508.157 3.503l-1.82-.252zM68.7 122.3a71.233 71.233 0 0 0-.11-.87l1.822-.23c.056.413.094.705.116.89l-1.83.21zm-.11-.87c-.02-.157-.065-.47-.13-.91l1.822-.265c.03.196.072.5.13.944l-1.82.23zm-.13-.91l-.178-1.228 1.227.185-.138.91-.91.134zm1.05-1.043a54.02 54.02 0 0 0 7.706.603l-.007 1.842a55.85 55.85 0 0 1-7.975-.624l.274-1.82zm7.706.603a58.91 58.91 0 0 0 7.65-.463l.216 1.83a60.68 60.68 0 0 1-7.873.475l.006-1.842zm7.65-.463l.57 1.713-.462-.8-.108-.913zm.57 1.713c-1.488.867-2.973 1.63-4.867 2.603l-.843-1.64c1.87-.962 3.334-1.715 4.786-2.56l.922 1.597zm-4.867 2.603c-.14.07-.28.144-.423.217l-.842-1.64.422-.218.842 1.64zm-.423.217c-1.947 1-1.964 3.102-1.277 5.302l-1.756.547c-.942-3.016-.816-5.945 2.19-7.49l.843 1.64zm-1.277 5.302c.78 2.497 2.436 5.125 3.476 6.727l-1.54 1c-1.096-1.688-2.843-4.463-3.692-7.18l1.756-.548zm3.476 6.727c2.176 3.353 4.228 6.177 6.584 7.62l-.957 1.57c-2.665-1.633-4.864-4.64-7.168-8.19l1.54-1zm6.584 7.62c2.227 1.366 4.83 1.492 8.28-.374l.87 1.627c-4.12 2.23-7.312 2.03-10.107.317l.957-1.57zm8.28-.374c1.63-.882 2.176-1.84 2.912-3.13l1.605.907c-.89 1.56-1.55 2.716-3.647 3.85l-.87-1.627zm2.912-3.13c.293-.514.615-1.076 1.086-1.78l1.526 1.022c-.377.563-.706 1.14-1.007 1.665l-1.605-.907zm1.086-1.78l.32-.298.443.81-.762-.512zm.32-.298c.538-.295 2.836-2.194 5.07-4.04l1.174 1.418c-2.31 1.91-4.688 3.873-5.36 4.24l-.884-1.618zm5.07-4.04c1.15-.95 2.286-1.89 2.875-2.364l1.16 1.44a323.89 323.89 0 0 0-2.86 2.342l-1.174-1.418zm2.875-2.364l.706-.57.582.7-.71.59-.58-.72zm1.29.13c.366.44.947.713 1.737.902l-.425 1.792c-1.177-.282-2.08-.734-2.732-1.514l1.42-1.18zm1.737.902c.907.217 2.098.323 3.54.427l-.13 1.842c-1.51-.11-2.774-.223-3.835-.477l.425-1.792zm3.54.427c1.133.082 4.748.08 7.083.08v1.842c-2.385 0-6.08.002-7.212-.08l.13-1.842zm7.083.08h1.724l-.008 1.843c-.368-.002-.98 0-1.717 0v-1.844zm1.724 0c2.175.014 3.9-.082 5.04-.728l.906 1.605c-1.503.852-3.49.982-5.953.966l.007-1.842zm5.04-.728c1.04-.59 1.665-1.75 1.82-3.923l1.843.13c-.206 2.883-1.155 4.49-2.757 5.398l-.907-1.605zm1.82-3.923c.08-1.116.1-1.78-.026-2.35l1.8-.398c.178.808.162 1.597.07 2.878l-1.842-.13zm-.026-2.35c-.125-.573-.42-1.165-.968-2.138l1.613-.9c.63 1.122.978 1.834 1.155 2.64l-1.8.397zm-.968-2.138l-.115-.428.922-.022-.808.45zm-.115-.428l-.106-3.967 1.844-.044c.034 1.322.07 2.645.106 3.967l-1.843.043zm-.106-3.967c-.034-1.323-.07-2.646-.105-3.968l1.843-.043c.034 1.32.07 2.644.106 3.966l-1.843.043zm-.105-3.968c-.038-1.42-.192-2.56-.472-3.666l1.785-.447c.316 1.245.487 2.51.53 4.07l-1.843.042zm-.472-3.666c-.283-1.116-.705-2.232-1.274-3.588l1.697-.713c.6 1.426 1.047 2.616 1.36 3.854l-1.784.446zm-1.274-3.588a68.5 68.5 0 0 1-1.09-2.804l1.73-.633c.322.87.65 1.76 1.057 2.725l-1.698.713zm.64-3.44v.003l-.865.318.864-.32zm-1.73.64c-.525-1.42-1.036-2.798-1.786-4.278l1.65-.828c.786 1.554 1.317 2.987 1.865 4.465l-1.73.64zm-1.786-4.278l-.083-.573.908.16-.824.413zm-.083-.573c.092-.513.168-.99.226-1.422l1.82.23a36.162 36.162 0 0 1-.23 1.51l-1.815-.318zm.226-1.422a34.9 34.9 0 0 0 .158-1.483l1.843.15c-.04.437-.1.96-.18 1.563l-1.82-.23zm.158-1.483l.172-1.927 1.387 1.337-.637.665-.922-.075zm1.56-.59l2.706 2.608-1.274 1.33c-.903-.868-1.805-1.738-2.707-2.607l1.273-1.33zm2.706 2.608l2.024 1.95-1.274 1.332-2.024-1.95 1.274-1.332zm2.024 1.95c1.46 1.408 2.795 2.686 4.276 3.56l-.935 1.59c-1.66-.977-3.07-2.33-4.615-3.818l1.274-1.332zm4.276 3.56c1.425.84 3.03 1.328 5.118 1.23l.087 1.842c-2.497.118-4.426-.47-6.14-1.48l.935-1.592zm5.118 1.23c2.252-.107 4.685-1.073 6.707-2.565l1.094 1.482c-2.304 1.7-5.1 2.8-7.715 2.925l-.087-1.843zm6.707-2.565c1.93-1.423 3.468-3.312 4.093-5.367l1.764.533c-.747 2.455-2.535 4.674-4.763 6.317l-1.095-1.482zm4.093-5.367l.646-2.13 1.764.534-.646 2.13-1.764-.534zm.646-2.13l.753-2.476 1.763.533-.752 2.477-1.764-.533zm.753-2.476l.24-.79.81.153-.168.903-.883-.266zm1.05-.637c3.73.705 7.794.952 11.698.542l.18 1.83c-4.082.427-8.324.17-12.215-.565l.338-1.807zm11.698.542c3.43-.36 6.74-1.23 9.583-2.747l.864 1.627c-3.056 1.63-6.6 2.564-10.267 2.95l-.18-1.83zm9.583-2.747c4.165-2.224 7.294-5.507 9.546-9.41l1.598.915c-2.42 4.193-5.788 7.724-10.28 10.122l-.864-1.627zm9.546-9.41v-.003l.8.46-.8-.456zm0-.003c2.574-4.458 4.016-9.718 4.565-15.137l1.827.173c-.575 5.68-2.09 11.2-4.795 15.885l-1.598-.92zm4.565-15.137c.446-4.416.198-10.44-.726-16.264l1.814-.287c.948 5.972 1.2 12.166.74 16.723l-1.83-.173zm-.726-16.264c-.815-5.137-2.157-10.106-4.007-13.648l1.634-.85c1.943 3.717 3.343 8.886 4.188 14.21l-1.814.288zm-4.007-13.648c-.145-.278-.386-.58-.695-.887l1.288-1.316c.444.44.804.9 1.04 1.354l-1.633.85zm-.695-.887c-.79-.778-1.964-1.516-3.18-1.934l.598-1.742c1.476.508 2.905 1.408 3.87 2.36l-1.288 1.317zm-3.18-1.934c-1.127-.388-2.263-.495-3.074-.07l-.85-1.635c1.31-.683 2.958-.574 4.522-.036l-.597 1.742zm-3.074-.07c-.17.088-.33.203-.47.346l-1.318-1.288c.282-.286.598-.516.938-.693l.85 1.635zm-.47.346c-.754.764-1.415 1.73-2.077 2.698l-1.518-1.037c.716-1.046 1.43-2.09 2.278-2.95l1.318 1.29zm-2.077 2.698c-.87 1.273-1.747 2.55-2.88 3.52l-1.195-1.404c.96-.82 1.76-1.99 2.557-3.153l1.52 1.037zm-2.88 3.52c-1.388 1.185-2.996 1.83-4.49 2.43l-.684-1.713c1.36-.545 2.82-1.132 3.98-2.12l1.194 1.403zm-4.49 2.43l-.678.273-.698-1.705c.286-.118.49-.2.692-.28l.684 1.712zm-.678.273l-.88.363-.333-.9.863-.315.35.853zm-1.213-.536a23.714 23.714 0 0 0-2.174-4.396l1.562-.978a25.54 25.54 0 0 1 2.34 4.742l-1.73.633zm-2.174-4.396c-.855-1.364-1.824-2.636-2.89-3.904l1.412-1.18c1.123 1.338 2.144 2.676 3.04 4.106l-1.562.98zm-2.89-3.904a15.06 15.06 0 0 0-2.48-2.37l1.115-1.46c.967.736 1.86 1.556 2.778 2.65l-1.41 1.18zm-2.48-2.37c-.86-.655-1.838-1.27-2.978-1.982l.978-1.562c1.155.723 2.146 1.345 3.115 2.083l-1.115 1.462zm-2.978-1.982c-3.213-2.012-5.905-4.374-8.652-6.784l1.21-1.388c2.688 2.36 5.324 4.67 8.42 6.61l-.978 1.562zm-8.652-6.784c-1.157-1.014-2.323-2.037-3.628-3.113l1.174-1.425c1.207.996 2.44 2.078 3.663 3.15l-1.21 1.388zm-3.628-3.113c-6.084-5.017-11.72-7.447-17.705-7.824l.116-1.843c6.387.402 12.36 2.963 18.762 8.242l-1.174 1.425zm-17.705-7.824c-6.03-.38-12.473 1.31-20.123 4.53l-.713-1.7c7.908-3.33 14.608-5.072 20.952-4.673l-.117 1.843zm-20.123 4.53c-3.606 1.516-6.274 3.3-8.59 5.442l-1.244-1.353c2.47-2.283 5.304-4.182 9.12-5.79l.714 1.7zm-8.59 5.442c-2.332 2.157-4.337 4.706-6.586 7.714l-1.475-1.102c2.302-3.08 4.365-5.7 6.816-7.966l1.245 1.353zm-6.586 7.714l-.26.348-.43.022-.048-.92.738.55zm-.69.37c-1.282.067-2.355.222-3.422.648l-.684-1.713c1.292-.516 2.54-.7 4.012-.777l.093 1.842zm-3.422.648c-1.083.433-2.2 1.158-3.567 2.365l-1.217-1.382c1.54-1.358 2.824-2.184 4.1-2.695l.684 1.713zm-3.567 2.365a91.738 91.738 0 0 0-3.088 2.856l-1.28-1.325c1.01-.98 2.057-1.95 3.15-2.914l1.218 1.383zm-3.088 2.856l-.004.003-.637-.666.64.662zm-.004.003c-.998.965-1.972 1.95-2.93 2.95L76.06 38.03c.975-1.02 1.968-2.02 2.99-3.01l1.273 1.333zm-2.93 2.95l-.523.27-.144-.907.666.637zm-.523.27C69.668 40.72 63.832 41.98 58.62 44l-.663-1.722c5.33-2.064 11.283-3.35 18.625-4.52l.288 1.815zM58.62 44c-5.168 2-9.73 4.76-14.42 8.918l-1.216-1.382c4.865-4.313 9.6-7.177 14.973-9.258l.662 1.72zM44.2 52.917a37.567 37.567 0 0 0-4.97 5.33l-1.46-1.115a39.4 39.4 0 0 1 5.214-5.597l1.216 1.382zm-4.97 5.33a39.414 39.414 0 0 0-3.738 5.96l-1.64-.835a41.29 41.29 0 0 1 3.918-6.24l1.46 1.116zm-3.738 5.96l-.137.198-.684-.616.822.418zm-.137.198c-1.047 1.157-2.093 2.33-3.215 3.34l-1.23-1.374c1.082-.976 2.08-2.094 3.078-3.197l1.367 1.23zm-3.215 3.34c-1.175 1.06-2.45 1.96-3.923 2.526l-.662-1.72c1.23-.474 2.326-1.254 3.355-2.18l1.23 1.374zm-3.923 2.526h-.003l-.328-.86.33.86zm-.003 0c-1.182.454-1.76.682-2.415.405l.712-1.7c.03.013.327-.15 1.047-.426l.654 1.722zm-2.415.405l-.005-.004.36-.846-.356.85zm-.005-.004c-.69-.293-.883-.86-1.31-2l1.728-.642c.242.65.237.924.302.95l-.72 1.693zm-1.31-2l-.24-.643.553-.416.55.738-.863.32zm.313-1.06c1.693-1.27 1.854-3.804 2.008-6.244l1.842.114c-.18 2.853-.368 5.816-2.75 7.605l-1.1-1.476zm2.008-6.244c.02-.32.04-.638.057-.88l1.843.13c-.024.333-.04.6-.058.864l-1.842-.115zm.057-.88l.066-.9.898.043-.043.922-.922-.065zm.965-.857c1.52.073 2.212 1.145 2.96 2.3l-1.55.995c-.476-.74-.92-1.425-1.497-1.452l.088-1.843zm2.96 2.3c.207.324.422.657.65.943l-1.44 1.145a13.612 13.612 0 0 1-.76-1.092l1.55-.994zm.83 1.714l-.422 1.885-1.198-1.51.72-.573.9.197zm-1.8-.397c.31-1.39.55-3.215.212-4.71l1.793-.402c.41 1.824.147 3.928-.206 5.51l-1.8-.398zm.212-4.71c-.214-.95-.672-1.765-1.525-2.206l.842-1.642c1.41.73 2.15 1.996 2.476 3.446l-1.793.403zm-1.525-2.206l-.728-.378.285-.763.864.32-.42.82zm-.443-1.14c.137-.365.335-.87.538-1.39l1.713.67c-.16.406-.32.815-.523 1.36l-1.728-.64zm.538-1.39c.272-.693.55-1.403.844-2.238l1.742.604c-.262.746-.572 1.536-.873 2.304l-1.713-.67zm1.56-2.843l1.546-.267-.52 1.477-.87-.302-.156-.907zm.31 1.815c-1.784.31-5.713 2.514-8.565 5.474l-1.332-1.275c3.112-3.23 7.53-5.657 9.587-6.014l.31 1.815zm-8.565 5.474c-1.034 1.072-1.91 2.23-2.463 3.412l-1.67-.77c.652-1.392 1.646-2.717 2.8-3.917l1.333 1.274zm-2.463 3.412c-.528 1.126-.77 2.28-.575 3.398l-1.814.31c-.264-1.517.04-3.03.72-4.478l1.67.77zm-.575 3.398c.176 1.016.722 2.038 1.75 3.03l-1.274 1.33c-1.333-1.284-2.048-2.654-2.29-4.05l1.814-.31zm1.75 3.03l.256.445-.893.22.637-.666zm.256.445c.234.952.443 1.756.672 2.483l-1.756.548a43.164 43.164 0 0 1-.702-2.592l1.785-.44zm.672 2.483c.218.696.456 1.32.755 1.943l-1.663.792c-.333-.693-.6-1.398-.848-2.186l1.755-.548zm.755 1.943c.662 1.38 1.71 2.218 2.92 2.606l-.562 1.756c-1.67-.536-3.115-1.686-4.02-3.57l1.662-.79zm2.92 2.606c1.41.453 3.05.314 4.58-.283l.67 1.713c-1.915.747-3.993.91-5.812.326l.56-1.756zm4.58-.283l1.6-.624-.365 1.673-.9-.194-.334-.857zm1.235 1.05c-.434 1.99-.696 4.078-.783 6.435l-1.843-.065c.09-2.46.367-4.653.826-6.758l1.8.388zm-.783 6.435c-.088 2.357 0 5.002.268 8.11l-1.842.15c-.27-3.15-.36-5.865-.27-8.325l1.844.065zm.268 8.11c.068.79.15 1.518.243 2.184l-1.82.245a43.172 43.172 0 0 1-.265-2.28l1.842-.15zm.243 2.184c.103.734.23 1.485.376 2.25l-1.808.345a47.256 47.256 0 0 1-.39-2.35l1.82-.245zm.376 2.25l-.04.49-.864-.318"/><path d="M77.232 40.133l-12.13 1.97-11.07 4.853-9.4 5.913-8.945 10.916-5.054 5.353-4.887 1.8-1.292-3.16 2.26-3.26.507-4.6 1.515.06 1.654 1.508-.447-4.686-1.833-1.23.055-1.785-4.343 2.457-3.933 4.64-.82 4.147 1.68 3.322 1.57 5.64 3.19 1.512 3.356-.165 3.182-1.85-2.123 10.765 2.123 11.978-2.337 5.53-7.652 8.247 1.36 4.926 3.626 5.71 6.836 4.81 3.626.496 4.03.136-2.514 10.325 9.25 3.79 11.523 1.517 3.942-2.577.303-6.975 4.397-7.278.304-5.76 10.614.757 9.856-.91-9.856 5.913 1.668 7.127 6.217 9.703 6.064 2.578 4.85-1.97 1.973-3.943 10.158-7.733 1.97 1.668 15.922.606 3.184-2.577.304-4.55-1.06-1.97-.76-12.282-5.306-10.614.91-4.7 3.184 1.667 8.946 8.34 4.396.304 4.852-1.97 4.853-3.64 2.424-7.885 14.253.91L177 90.622l6.974-6.52 5.004-9.4 1.213-11.068-1.06-12.888-2.73-11.524-2.73-3.64-3.79-1.212-6.67 7.28-6.066 2.122-5.307-8.794-5.307-4.852-2.88-1.82-11.524-9.552-9.25-5.003-9.248-.758-10.765 1.82-9.4 3.487-6.52 5.306-5.156 6.217-5.306 1.516-9.248 8.793z" fill="#ff0" fill-rule="evenodd" stroke="#1f1917" stroke-width=".27" stroke-miterlimit="10"/><path d="M42.052 67.498c-10.39 12.118-8.082 26.816-5.203 41.216-1.538-3.883-3.075-7.765-4.61-11.648-.568-3.56-1.134-7.118-1.7-10.678l.485-10.92 4.368-10.434 6.553-9.707c3.397-2.83 6.794-5.663 10.19-8.494l11.164-4.61 13.105-1.7L64.27 54.357c-9.74 3.16-15.487 5.288-22.218 13.142" fill="#ffc" fill-rule="evenodd"/><path d="M90.965 30.575C83.74 37.622 79.795 42.937 75.2 51.188c-3.29 5.903-6.977 11.588-10.434 17.408-1.75 2.946-1.914 5.417-2.437 8.814l-5.097-6.067 2.427-7.28 8.25-14.803c5.825-5.743 11.65-11.486 17.473-17.23l5.582-1.455M126.637 13.103c-5.785 2.17-15.393 2.883-16.06 9.523-.474 4.716.356 7.085 3.198 12.074-7.02-7.264-8.756-6.14-22.325-3.883 1.94-2.75 3.883-5.5 5.824-8.25l10.192-6.31c4.368-.97 8.736-1.94 13.104-2.912l6.067-.242" fill="#ffc" fill-rule="evenodd"/><path d="M142.6 102.92c1.927 1.19 1.885 2.05 1.563 2.865l4.558-1.823 2.954-3.965 2.19-5.65-2.8-2.105-12.24 1.563-.912 2.474c.088 1.17.174 2.343.26 3.515.392.694.783 1.39 1.173 2.083l1.823.912 1.433.13M141.46 81.987c-6.135 1.77-6.087 2.26-7.9 8.346 2.393-3.838 4.164-5.775 7.9-8.346M182.26 36.433c-1.092.504-2.153.747-2.835 1.745-1.468 2.147-2.726 3.954-5.154 5.462-1.22.76-2.486 1.25-3.782 1.655-1.076.335-1.72.036-2.637.694l1.63.284h3.592l4.428-2.735 2.604-2.736c.72-1.457 1.437-2.914 2.155-4.37M84.522 50.05c-2.415 6.605-4.523 12.267-8.18 18.248 4.685-5.05 7.526-9.34 10.21-15.048 1.042-2.217 1.24-4.82 4.143-3.85.13 2.213.598 4.426.73 6.64 1.568-11.247 5.992-15.95 16.276-20.314l-8.724 1.042-8.204 1.823c-1.345 1.954-2.69 3.907-4.037 5.86l-2.213 5.6M104.446 49.79c2.217 10.438 5.41 20.456 6.798 31.06.9 6.892 1 10.202-2.468 16.147-3.79-.245-6.14.182-9.806 1.383-14.59 4.783-22.958 11.815-32.79-2.354 3.14 1.478 6.278 2.957 9.416 4.437l6.712-1.32 11.85-6.9c3.082-.61 6.164-1.216 9.246-1.824l2.995-12.502c-.74-5.513-1.477-11.026-2.215-16.54l-.26-7.812.52-3.776M129.58 114.38c-1.227 8.48 2.82 13.04 1.145 15.382-.475.663-1.118 1.82-1.836 2.137-2.566 1.132-6.09-.213-6.343.45h-8.465a4582.96 4582.96 0 0 0-3.386-1.432l5.21-6.12 5.078-11.07 3.255-11.198h1.692c1.216 3.95 2.43 7.9 3.647 11.85" fill="#cc0" fill-rule="evenodd"/><path d="M115.352 89.725c.687 3.85 1.88 4.766 3.693 8.493-1.206 6.08-3.143 13.313-5.474 18.678-.982 2.263-1.775 3.51-3.508 5.26-2.926 2.954-5.884 5.527-9.202 8.088-2.388 1.84-4.055.918-7.002.5-1.253 2.273-1.6 3.535-3.906 4.688-3.548 1.774-6.723-2.05-9.507-4.297l6.03 9.42c1.39 1.3 2.778 2.604 4.167 3.906l3.516.522 4.688-2.865 2.474-4.688 5.21-3.908 6.38-5.47c1.346-1.91 2.69-3.82 4.037-5.73l3.646-6.77 4.688-14.064.392-5.34-5.86-2.604c-1.433-1.346-3.028-2.474-4.46-3.82M68.635 116.854c6.572 0 13.513-.365 19.533-3.125 1.704-2.557 3.385-4.644 5.47-6.903-1.898 3.583-2.493 5.608-2.996 9.636l-1.953 2.865-14.847.39-4.818-.52-.52-.52.13-1.824M67.723 112.296l-.51-4.623c-1.123 6.76-.853 11.288-3.964 17.342-2.324 2.693-5.185 5.143-8.462 6.454.277 1.66.36 2.696.2 3.913-.58 4.378-9.336 2.444-12.938 2.27l17.34 4.464 3.906-1.563L64.598 133l3.646-6.77.65-4.167-1.17-9.767M57.956 74.14c-.18 3.288-.394 4.658 1.056 7.56 1.842 3.69 4.105 7.156 6.107 10.802.216-2.43.432-4.86.65-7.292l-7.814-11.07M31.225 98.967l-1.692 3.6c1.552 5.226 2.93 8.536 5.885 13.102-.514 1.85-.9 2.658-2.083 4.166-2.6-.4-4.91-.516-7.543-.508l8.725 6.772c1.432-.26 2.864-.52 4.297-.782l4.297-4.297-6.12-9.505c-1.92-4.183-3.844-8.366-5.765-12.548M182.278 34.704c1.77 7.97 4.056 15.323 3.844 23.484-.26 10.013-2.212 22.66-11.49 28.7-10.39 6.762-22.585 3.563-33.985.666l13.934 5.73 13.023.65a46273.3 46273.3 0 0 1 8.855-2.603l6.902-5.73c1.736-3.645 3.472-7.292 5.21-10.938.65-4.21 1.3-8.42 1.952-12.63-.52-4.125-1.042-8.25-1.563-12.372l-2.865-12.24-3.817-2.716M27.228 58.455c-4.716 3.07-6.57 4.418-6.052 10.108l1.41 5.112c.666.45 1.332.9 1.998 1.352l2.468.822 4.466-1.06 2.292-7.11-6.346 3.116h-1.47L24.35 68.27c.665-.98 1.33-1.96 1.997-2.94l1.058-5.582c.45.138.9.274 1.35.41l1.647 1.294c-.08-.98-.157-1.958-.235-2.938l-1.117-1.88-1.116-.94-.706 2.76M133.05 13.622c4.186 3.887 9.324 7.266 12.672 12.016 1.296 1.84 2.736 2.78-.022 5.377 2.914-.832 3.996-.742 6.328-.46 4.243.515 8.22 6.546 8.473 10.868-.05.404-1.177 1.32-4.458 2.227-.065.126-1.85-.244-1.807-.124.34.933.797 1.076 1.492 1.513.15 1.036.25 2.636.955 3.77 2.064-.036 4.082.19 6.103.59.68 1.127.578 2.255.52 3.385l2.345-.39-.65-5.34 2.082-3.516-2.995-6.772-5.73-5.47c-.183-.01-.368-.018-.55-.027-2.15-1.318-4.297-2.635-6.445-3.954l-10.51-8.598c-2.6-1.7-5.2-3.398-7.802-5.096M140.102 45.707c-.22.386-.555 1.003-.982 1.43 1.744 1.65 2.604 2.755 3.225 5.087-1.97.98-3.94 1.957-5.913 2.936-1.667 1.6-3.335 3.198-5.003 4.797-2.196-1.182-2.743-2.09-3.806-4.342-1.237.327-2.41.643-3.43.268.648.005 1.046-.157 1.694-.558l3.184-3.308 5.623-4.26c1.227-.4 2.454-.8 3.68-1.198.47-.194 1.258-.66 1.727-.853" fill="#cc0" fill-rule="evenodd"/><path d="M145.542 51.59c-6.27 3.376-12.277 6.772-15.483 13.184 0-8.14 8.17-11.722 15.482-13.185M128.814 35.578c-4.657 3.175-7.95 9.582-7.536 15.826-1.516-5.407-.98-10.516 3.678-14.25l2.357-1.146 1.5-.43" fill="#cc0" fill-rule="evenodd"/><path d="M137.714 83.78c.962-.524 2.71-1.244 3.67-1.768-.99.167-2.763.53-3.753.698-2.644.447-2.955 1.082-3.365 3.686-.194 1.226-.46 2.747-.654 3.973.52-1.387 1.143-3 1.747-4.32.64-1.4 1-1.53 2.357-2.27zM88.65 16.726c2.077-3.117 3.273-4.13 6.47-6.106-4.34 1.046-5.17 1.85-6.47 6.106zm-.685 6.867C91.6 16.283 94.355 13.59 101.968 10c-8.61 2.11-11.143 3.612-14.003 13.593zM10.09 61.645c.798-3.66 1.542-5.042 3.8-8.047-3.662 2.558-4.14 3.61-3.8 8.047zm81.512 61.267c-.11-.888-.22-1.777-.332-2.665-.2-1.61-.19-2.917-.063-4.537l.37-4.704c-.457 1.593-1.37 3.187-1.826 4.78-.182.64-.333 1.155-.42 1.63-6.813 1.394-13.578 1.48-20.394.265-.435-2.522-.964-5.152-1.408-7.037-.135 2.112-.048 7.948-.06 11.215-.007 2.532-.114 3.4-1.42 5.553-1.222 2.017-1.74 2.475-3.45 5.88.142 2.15.144 3.572-.427 5.612-.95 3.392-10.53.764-13.057.072-3.113-.852-9.548-2.118-7.93-6.268 1.425-3.652 2.327-7.502 3.023-12.612-5.702-8.215-11.006-19.473-12.023-29.447-.79-7.746-.316-12.513 1.36-17.25 2.655-7.506 6.37-14.004 12.332-19.236 8.04-7.055 15.558-9.89 27.328-11.68-2.83 3.168-5.63 6.518-8.683 10.11-3.09 3.638-4.926 7.31-6.887 11.29-2.71 5.493-2.653 7.584.94 12.407 3.097 4.156 4.768 6.028 6.12 10.095-1.117 2.3-1.523 4.246-1.898 7.388 3.79 4.144 6.608 6.983 10.29 7.858 3.61.858 6.624.692 9.854-.96 7.173-3.667 13.81-8.403 21.903-8.6 3.744-9.203 3.366-16.893 1.568-25.8-1.226-6.08-1.718-11.84-2.1-18.04-1.518 6.386-1.803 12-.677 18.36 1.358 7.667 2.413 16.135-1.364 22.872-7.318.56-13.59 5.012-20.185 8.427-2.65 1.374-5.41 1.507-8.345.702-2.724-.75-4.56-2.55-7.496-5.935-.045-3.398.72-4.966 2.28-8.043 2.508-4.94 5.275-9.54 8.312-14.403-3.72 4.487-7.24 8.236-10.168 12.748-1.118-3.187-2.717-4.805-5.367-8.393-2.587-3.505-2.858-5.04-.923-9.095 1.945-4.076 3.596-7.66 6.907-11.234 5.722-6.18 10.964-13.057 17.22-19.142 3.4-3.304 4.778-3.19 9.285-3.873 4.072-.616 8.05-1.396 12.203-2.36-4.017.373-7.9.51-11.812.608l-.12.003c3.848-4.914 6.08-7.652 12.33-10.368 15.39-6.683 25.166-7.405 37.253 2.755 3.133 2.634 5.87 5.19 9.045 7.462-1.15.098-2.144.304-3.457.82 1.6-.305 3.444-.003 5.102.3.466.302.944.597 1.434.886 2.242 1.32 3.515 2.05 5.03 4.163a45.034 45.034 0 0 1 4.118 6.923c-.772-.276-1.42-.51-1.996-.68a4.297 4.297 0 0 0-4.047.25l-.093.045c-1.24.603-3.162 1.292-4.448 1.5.656.227 2.106.312 2.79.04.092-.036.186-.063.28-.086a4.284 4.284 0 0 0-.57 1.766 4.29 4.29 0 0 0 .458 2.386l.004.007c.116.274.277.527.455.708a33.91 33.91 0 0 0-1.806.733c2.868-.436 5.453-.51 8.252-.143.185.883.37 1.817.543 2.768l-1.04.082-.084.007c-1.323-1.058-2.798-.88-4.814-.42-6.13 1.397-4.688 4.837-7.51 10.02 2.93-3.58 2.712-7.325 7.484-8.455 1.11-.264 1.868-.593 2.62-.48-1.354.68-2.526 1.81-2.99 3.122-1.31 3.698-.496 6.814-1.935 10.268 1.782-3.088 1.89-6.1 3.483-9.35.572-1.167 2.696-3.035 4-3.064l1.074-.023c.314 2.056.505 4.097.383 5.79-.222 3.09-1.025 7.674-1.505 9.428 1.614-2.074 2.35-6.47 3.058-9.563.74-3.22.553-7.087-.094-10.548-.887-4.75 4.004-3.977 6.843-6.215 2.087-1.646 3.524-4.273 5.437-6.134 1.898-1.844 4.886.868 5.632 2.672 3.238 7.83 4.713 20.152 3.858 28.047-.96 8.858-5.24 18.528-13.053 22.89-9.96 5.56-21.703 2.163-31.6-1.17-2.11-.713-3.58-1.75-5.436-2.92.505 2.277.735 4.686.062 6.96-1.067 3.606-2.79 9.507 2.106 10.596 1.864.414 2.71.354 5.34-1.004-2.13.482-3.203.364-4.667.093-1.327-.244-2.03-1.087-2.4-2.08.463.334 1.22.516 2.51.828 3.63.874 7.09-.873 7.767-3.39.394-1.47.327-2.244 1.163-4.248.75.23 1.528.443 2.324.636l-1.35 4.4c-1.166 3.806-5.712 6.875-9.726 6.805-3.71-.066-6.063-2.39-8.625-4.67-1.766-1.57-3.464-3.072-5.147-4.56-4.618-1.457-8.32-3.16-12.606-6.333 3.05 3.585 5.12 5.57 9.373 7.353-.62 6.31-2.812 10.91-4.682 16.95-.845 2.732-7.526 13.673-9.378 14.74-1.32.76-9.59 7.726-11.144 8.644-1.16 1.538-2.176 3.664-3.917 4.584-5.308 2.807-8.72-2.567-11.575-7.105-1.3-2.07-4.91-8.024-1.764-9.692 2.978-1.577 4.645-2.703 7.68-4.696.447.813 1.213 1.597 1.712 2.41zm18.45 9.622c-2.687 2.17-7.205 6.013-8.082 6.494-1.587 2.37-1.783 3.836-4.326 5.212-7.57 4.097-11.588-.654-16.07-7.56-2.134-3.29-6.803-10.804-1.85-13.35 2.09-1.073 3.67-1.878 5.25-2.797-5.2.645-10.3.653-15.603-.145.094.64.176 1.25.243 1.807.344 2.898.457 3.787-1.117 6.122-1.148 1.703-1.59 2.196-2.976 5.29.252 2.515.143 3.93-.567 6.564-1.577 5.855-12.51 2.646-16.963 1.442-5.36-1.45-13.018-2.8-9.876-9.69a32.76 32.76 0 0 0 1.75-4.84c-4.686 2.074-11.2-2.326-14.3-5.436-2.95-2.958-4.554-6.392-5.112-9.726-.475-2.836-.04-2.823 1.984-4.828 1.852-1.833 3.704-3.67 5.555-5.5.75-2.036 1.498-4.07 2.245-6.104a44.257 44.257 0 0 1-.637-4.535c-.538-6.258-.357-10.715.537-14.81-3.26 1.27-7.002.675-8.667-2.786-.633-1.315-1.01-2.656-1.488-4.6-7.274-7.01 6.358-16.198 10.334-16.89-.454 1.293-.952 2.475-1.39 3.646 2.696 1.397 2.366 5.375 1.793 7.936-.97-1.226-1.506-2.826-2.933-2.895-.21 2.896-.173 6.097-2.435 7.797.67 1.79.633 1.792 2.537 1.06 2.702-1.04 4.738-3.36 6.785-5.62 2.205-4.296 5.032-8.117 8.92-11.564 9.555-8.472 18.587-11.244 33.13-13.56 1.936-2.02 3.936-3.97 6.084-5.866 2.91-2.567 4.798-3.1 7.55-3.243 4.552-6.09 8.134-10.332 15.557-13.457 15.56-6.55 26.284-6.864 38.772 3.432 4.127 3.403 7.646 6.988 12.182 9.828 2.295 1.438 3.935 2.47 5.675 4.543 2.19 2.608 3.976 5.216 5.22 8.572 1.607-.66 3.44-1.284 4.92-2.55 1.91-1.632 3.127-4.365 4.897-6.16 2.348-2.38 7.707.494 8.893 2.765 4.036 7.724 5.687 21.96 4.83 30.424-1.06 10.464-5.374 20.356-14.594 25.276-6.27 3.345-14.682 3.656-21.882 2.295l-1.398 4.606c-1.4 4.6-6.865 8.362-11.64 8.587-4.583.217-7.067-2.148-10.074-5.044l-4.732-4.557a34.478 34.478 0 0 1-.398 2.987c1.242 2.452 1.838 4.607 2.9 7.135 1.17 2.783 1.74 4.61 1.82 7.59.07 2.643.14 5.288.212 7.933 1.18 2.095 1.283 2.605 1.11 5.003-.362 5.054-3.146 5.537-7.785 5.507-1.546-.01-7.38.027-8.867-.08-2.956-.214-4.905-.44-5.924-1.66zm15.643-27.57c-.933 3.332-2.187 6.478-3.332 10.084-1.084 3.413-6.642 13.326-9.914 15.728.636.474 1.805.66 3.887.84 1.473.127 7.28.154 8.738.18 3.21.055 4.43-.186 4.753-3.842.16-1.79.02-2.124-.876-3.692-.08-2.798-.16-5.597-.237-8.394-.075-2.653-.584-4.18-1.627-6.653-.624-1.48-.963-2.86-1.393-4.252zm-97.78-45.786c.72-.082 1.167.296 1.724.853-.104-1.33-.35-2.317-1.284-2.86-.065.216-.127.432-.185.652-.112.428-.193.883-.254 1.356zm4.53 9.616c-.52 1.342-1 2.725-1.454 4.154-.075.237-.147.475-.217.71-2.74 1.164-6.345 1.903-7.725-.978-.67-1.398-1.048-2.77-1.537-4.538-4.513-4.676 2.235-10.85 5.91-13.065-.53 1.144-.91 2.01-1.167 2.9-1.117 3.863.506 7.31-3 10.11 1.648 3.324 1.572 4.65 5.405 3.113 1.48-.592 2.698-1.424 3.786-2.406zm-1.058 31.47c2.078 7.187 5.617 14.247 9.54 20.183 0 .034 0 .068-.002.103-.245 1.02-.53 2.016-1.126 2.814-2.805 3.75-9.937-1.755-12-3.863-2.258-2.303-3.77-5.032-4.128-7.59-.262-1.868-.008-1.913 1.295-3.234l5.267-5.332c.384-1.027.77-2.053 1.153-3.08zm132.77-57.675c.4.394.722.865.945 1.386.12-.112.25-.217.386-.317-.164-.37-.332-.736-.502-1.096-.285.007-.56.015-.83.025zM129.81 55.513a5.606 5.606 0 0 1-.547-2.375c-1.346 1.074-2.81 2.094-4.328 2.682 2.097-1.872 4.944-6.286 7.007-7.68 2.342-1.582 5.52-1.274 8.25-2.537-.933.847-2.127 1.53-3.343 2.18a5.63 5.63 0 0 1 3.67 4.67c1.835-.603 3.636-.888 5.157-.866-5.44 1.527-11.23 5.1-15.22 9.83a12.675 12.675 0 0 1 1.83-3.342 5.61 5.61 0 0 1-2.475-2.564zM104.578 35.83a70.57 70.57 0 0 1-8.674 2.788c-2.673 3.512-4.3 5.332-4.916 10.04-.724-4.63-.875-5.49 1.187-8.948-.597.303-1.153.72-1.95 1.4-2.88 2.464-6.633 12.14-8.134 15.6.953-4.163 3.934-14.573 7.003-17.607 2.02-1.995 2.477-1.95 5.323-2.22 3.39-.32 6.774-.67 10.162-1.054zm62.718 10.097c2.438.23 3.83.607 6.014-.473 4.068-2.013 7.062-5.3 9.003-9.23-1.188 4.69-3.577 8.674-8.534 10.442-2.435.868-4.005-.028-6.484-.74zm-46.78.458c.917-4.067 2.548-7.985 8.864-11.017-8.37 2.096-9.94 5.612-8.865 11.017zM11.958 68.288c.718-8.133 2.3-11.644 8.078-17.765-7.248 5.107-9.057 7.428-8.08 17.765" fill-rule="evenodd"/><path d="M130.904 56.823a2.356 2.356 0 0 1 1.113-3.138 2.365 2.365 0 0 1 3.275 1.45 14.9 14.9 0 0 0-3.008 2.946c-.58-.232-1.093-.656-1.38-1.257M157.113 46.684c.094-.97.92-1.684 1.89-1.59.97.094 1.684.96 1.59 1.93-.02.206-.075.4-.158.577-.888.152-1.775.413-2.69.75-.38-.393-.685-1.107-.632-1.666" fill="#ffc" fill-rule="evenodd"/></svg>