<svg xmlns="http://www.w3.org/2000/svg" width="232.975" height="62.7"><defs><clipPath id="a"><path d="M0 501.602V0h1863.85v501.602H0z"/></clipPath></defs><g clip-path="url(#a)" transform="matrix(.13 0 0 -.13 0 62.7)"><path d="M279.48 235.035c0 5.418-2.847 10.4-7.527 13.086l-124.687 71.76c-2.11 1.237-4.473 1.882-6.868 1.98h-1.29a14.907 14.907 0 0 1-6.88-1.98L7.537 248.12A15.113 15.113 0 0 1 0 235.036L.273 41.813c0-2.688 1.395-5.188 3.758-6.504a7.252 7.252 0 0 1 7.486 0l74.097 42.428c4.688 2.785 7.543 7.696 7.543 13.067v90.273c0 5.383 2.852 10.363 7.52 13.04l31.55 18.17a14.963 14.963 0 0 0 7.547 2.024c2.57 0 5.207-.664 7.493-2.023l31.543-18.173c4.667-2.676 7.53-7.656 7.53-13.04V90.806c0-5.37 2.89-10.313 7.547-13.067l74.082-42.43a7.33 7.33 0 0 1 7.526 0c2.297 1.317 3.742 3.817 3.742 6.504l.242 193.223M933.71 134.426c0-1.344-.718-2.59-1.886-3.258L889 106.48a3.782 3.782 0 0 0-3.762 0l-42.828 24.688a3.76 3.76 0 0 0-1.883 3.258v49.453c0 1.34.72 2.585 1.88 3.26l42.827 24.735a3.758 3.758 0 0 0 3.77 0l42.828-24.734a3.785 3.785 0 0 0 1.88-3.26v-49.454zm11.57 366.222a7.535 7.535 0 0 1-7.483-.082 7.53 7.53 0 0 1-3.715-6.492V302.72c0-1.88-1.008-3.622-2.633-4.564a5.258 5.258 0 0 0-5.274 0l-31.23 17.992a15.068 15.068 0 0 1-15.048-.003l-124.738-71.99a15.05 15.05 0 0 1-7.53-13.042V87.11c0-5.38 2.866-10.352 7.526-13.048l124.73-72.04a15.073 15.073 0 0 1 15.07 0l124.754 72.04a15.075 15.075 0 0 1 7.53 13.047v358.964c0 5.46-2.96 10.492-7.73 13.156l-74.23 41.418M1391.55 185.172a15.055 15.055 0 0 1 7.49 13.023v34.895a15.05 15.05 0 0 1-7.5 13.027l-123.93 71.96a15.092 15.092 0 0 1-15.1.02l-124.69-71.988a15.058 15.058 0 0 1-7.53-13.044V89.102c0-5.415 2.91-10.41 7.61-13.086l123.92-70.61a15.05 15.05 0 0 1 14.77-.082l74.95 41.66a7.502 7.502 0 0 1 3.87 6.532 7.537 7.537 0 0 1-3.78 6.582l-125.48 72.023a7.515 7.515 0 0 0-3.79 6.532v45.118c0 2.69 1.44 5.18 3.77 6.523l39.06 22.516a7.522 7.522 0 0 0 7.52 0l39.07-22.517a7.535 7.535 0 0 0 3.77-6.523v-35.497a7.543 7.543 0 0 1 3.77-6.53 7.527 7.527 0 0 1 7.54.015l74.69 43.414" fill="#404137" fill-rule="evenodd"/><path d="M506.3 318.852a15.045 15.045 0 0 0 15.055 0l124.723-71.973a15.052 15.052 0 0 0 7.535-13.048V89.777c0-5.383-2.87-10.35-7.527-13.047L521.363 4.7a15.073 15.073 0 0 0-15.07 0l-124.69 72.03a15.07 15.07 0 0 0-7.533 13.047V233.84c0 5.38 2.87 10.35 7.535 13.04L506.3 318.85" fill="#83cd29" fill-rule="evenodd"/><path d="M1633.71 2.64c-4.3 0-8.57 1.126-12.33 3.3l-39.27 23.236c-5.86 3.28-3 4.44-1.07 5.117 7.83 2.715 9.41 3.34 17.76 8.074.87.49 2.02.305 2.92-.222l30.16-17.91c1.1-.606 2.64-.606 3.65 0l117.6 67.878c1.1.625 1.8 1.887 1.8 3.184V231.02c0 1.328-.7 2.57-1.82 3.242l-117.56 67.824c-1.09.633-2.53.633-3.63 0l-117.53-67.844c-1.14-.652-1.86-1.933-1.86-3.222V95.297c0-1.297.72-2.528 1.85-3.145l32.22-18.613c17.48-8.74 28.19 1.554 28.19 11.894v134.004c0 1.894 1.52 3.39 3.41 3.39h14.92c1.86 0 3.4-1.496 3.4-3.39V85.434c0-23.33-12.7-36.707-34.82-36.707-6.8 0-12.15 0-27.09 7.363l-30.84 17.754c-7.62 4.402-12.33 12.636-12.33 21.453V231.02c0 8.82 4.71 17.05 12.33 21.437l117.61 67.957c7.44 4.21 17.33 4.21 24.71 0l117.6-67.957c7.62-4.406 12.35-12.617 12.35-21.437V95.297c0-8.817-4.73-17.02-12.35-21.453L1646.09 5.94a24.67 24.67 0 0 0-12.38-3.3" fill="#83cd29"/><path d="M1670.04 96.148c-51.47 0-62.25 23.622-62.25 43.438a3.384 3.384 0 0 0 3.4 3.387h15.21c1.7 0 3.11-1.22 3.38-2.88 2.29-15.48 9.14-23.292 40.26-23.292 24.77 0 35.32 5.606 35.32 18.75 0 7.58-2.99 13.204-41.49 16.973-32.18 3.184-52.08 10.293-52.08 36.036 0 23.73 20 37.88 53.53 37.88 37.68 0 56.32-13.077 58.68-41.13.09-.97-.25-1.896-.89-2.62-.65-.674-1.55-1.085-2.49-1.085h-15.27c-1.58 0-2.98 1.125-3.3 2.657-3.66 16.29-12.57 21.496-36.73 21.496-27.05 0-30.19-9.426-30.19-16.485 0-8.554 3.71-11.046 40.23-15.878 36.14-4.778 53.31-11.543 53.31-36.946 0-25.626-21.37-40.302-58.63-40.302M1832.21 320.102v-3.485h-9.9v-25.793h-3.99v25.793h-9.86v3.485h23.75M1835.74 320.102h5.69l8.4-24.747 8.37 24.747h5.65v-29.278h-3.79v17.278c0 .605.01 1.59.03 2.957.04 1.405.06 2.89.06 4.463l-8.37-24.7h-3.93l-8.44 24.7v-.878c0-.723 0-1.817.05-3.3.03-1.458.07-2.54.07-3.243v-17.278h-3.79v29.278" fill="#83cd29"/><path d="M1258.22 191.914c.9.52 2 .52 2.89 0l23.94-13.81a2.89 2.89 0 0 0 1.44-2.502v-27.637c0-1.035-.55-1.988-1.44-2.504l-23.94-13.808c-.89-.52-1.99-.52-2.89 0l-23.91 13.81a2.88 2.88 0 0 0-1.45 2.503v27.637c0 1.035.55 1.988 1.45 2.503l23.91 13.81" fill="#83cd29" fill-rule="evenodd"/></g></svg>